<svg width="103" height="28" viewBox="0 0 103 28" fill="none" xmlns="http://www.w3.org/2000/svg">
<g clip-path="url(#clip0)">
<path d="M28 16.0969H32.521C36.705 16.0969 39.134 18.5529 39.134 21.9629V21.9969C39.134 25.4069 36.671 27.9649 32.453 27.9649H28V16.0969ZM32.589 25.0659C34.546 25.0659 35.828 23.9749 35.828 22.0659V22.0319C35.828 20.1219 34.546 19.0319 32.589 19.0319H31.273V25.0679L32.589 25.0659Z" fill="white"/>
<path d="M55.397 16.0969H58.67V27.9649H55.397V16.0969Z" fill="white"/>
<path d="M61.8411 16.0969H65.0801V25.0969H70.7801V27.9969H61.8411V16.0969Z" fill="white"/>
<path d="M74.393 23.5319L69.939 16.0969H73.65L76.079 20.4279L78.509 16.0969H82.153L77.665 23.4969V27.9969H74.392L74.393 23.5319Z" fill="white"/>
<path d="M48.21 16.0289H45.072L40.079 27.9999H43.487L45.309 23.2939H45.279L46.595 19.9179L47.911 23.2939L49.699 27.9999H53.208L48.21 16.0289Z" fill="white"/>
<path d="M28 0.239014H37.38V3.13901H31.273V5.15001H36.84V7.87801H31.273V12.107H28.034V0.239014H28Z" fill="white"/>
<path d="M51.7191 6.20699C51.7015 5.38985 51.8489 4.57755 52.1525 3.8187C52.4561 3.05986 52.9097 2.37006 53.4861 1.79057C54.0625 1.21109 54.7499 0.75384 55.5071 0.446175C56.2643 0.13851 57.0758 -0.0132453 57.8931 -9.77516e-06C58.8682 -0.0426125 59.8381 0.163589 60.7116 0.59919C61.5851 1.03479 62.3334 1.68547 62.8861 2.48999L60.4191 4.39999C60.1367 3.97669 59.756 3.62818 59.3094 3.38434C58.8628 3.1405 58.3638 3.00861 57.855 2.99999C57.4623 3.01376 57.0765 3.1069 56.7207 3.2738C56.3649 3.4407 56.0466 3.67791 55.785 3.97112C55.5234 4.26433 55.3238 4.60748 55.1984 4.97988C55.0729 5.35229 55.0242 5.74624 55.0551 6.13799V6.17199C55.0209 6.56613 55.0672 6.9631 55.191 7.33883C55.3149 7.71456 55.5137 8.06123 55.7755 8.35782C56.0373 8.65441 56.3567 8.89475 56.7141 9.06427C57.0716 9.23378 57.4597 9.32895 57.855 9.34399C58.3818 9.33793 58.8993 9.20453 59.3634 8.95518C59.8274 8.70582 60.2243 8.34792 60.5201 7.91199L62.9831 9.68499C62.4233 10.5454 61.6499 11.2459 60.7385 11.718C59.8271 12.1902 58.8088 12.418 57.7831 12.379C56.9769 12.3816 56.1783 12.2229 55.4343 11.9123C54.6904 11.6016 54.016 11.1454 53.451 10.5703C52.886 9.99521 52.4417 9.31293 52.1442 8.5636C51.8468 7.81427 51.7023 7.01302 51.7191 6.20699V6.20699Z" fill="white"/>
<path d="M68.252 3.13901H64.743V0.239014H75.034V3.13901H71.525V12.139H68.286V3.13901H68.252Z" fill="white"/>
<path d="M76.5519 6.20703C76.5508 5.38007 76.7151 4.56124 77.0352 3.79873C77.3552 3.03622 77.8246 2.34544 78.4156 1.76707C79.0067 1.18869 79.7075 0.734396 80.4767 0.430928C81.246 0.127461 82.0682 -0.0190474 82.8949 2.68253e-05C83.7155 -0.0232545 84.5323 0.11836 85.2971 0.416483C86.0619 0.714607 86.7591 1.16318 87.3474 1.73562C87.9357 2.30807 88.4031 2.99276 88.722 3.74913C89.0409 4.5055 89.2048 5.31818 89.2039 6.13903V6.17303C89.2017 6.99743 89.0348 7.81309 88.7131 8.57214C88.3914 9.33119 87.9213 10.0184 87.3305 10.5933C86.7397 11.1683 86.04 11.6195 85.2725 11.9205C84.505 12.2215 83.6851 12.3661 82.8609 12.346C82.0397 12.3721 81.2216 12.2324 80.4556 11.9353C79.6896 11.6382 78.9912 11.1897 78.4024 10.6167C77.8135 10.0437 77.3461 9.3579 77.0282 8.60026C76.7103 7.84261 76.5483 7.02867 76.5519 6.20703V6.20703ZM85.8639 6.20703C85.886 5.79582 85.8253 5.38436 85.6854 4.99706C85.5454 4.60976 85.3292 4.2545 85.0494 3.95233C84.7696 3.65017 84.432 3.40726 84.0566 3.23801C83.6812 3.06876 83.2756 2.97661 82.8639 2.96703C82.4581 2.97197 82.0575 3.05892 81.6861 3.22267C81.3148 3.38643 80.9804 3.62359 80.703 3.91989C80.4257 4.2162 80.2111 4.56554 80.0722 4.9469C79.9334 5.32826 79.8731 5.73376 79.8949 6.13903V6.17303C79.8762 6.58179 79.9394 6.99017 80.0809 7.3741C80.2225 7.75804 80.4394 8.10976 80.719 8.40854C80.9986 8.70732 81.3351 8.94712 81.7088 9.11379C82.0826 9.28047 82.4858 9.37065 82.8949 9.37903C83.3008 9.37409 83.7014 9.28713 84.0728 9.12338C84.4441 8.95963 84.7785 8.72247 85.0559 8.42616C85.3332 8.12985 85.5478 7.78052 85.6866 7.39916C85.8255 7.0178 85.8858 6.61229 85.8639 6.20703V6.20703Z" fill="white"/>
<path d="M45.747 0.171021H42.609L37.582 12.108H41.023L42.845 7.43602H42.811L44.127 4.06002L45.443 7.43602L47.231 12.108H50.74L45.747 0.171021Z" fill="white"/>
<path d="M99.9041 7.98103C100.638 7.70126 101.267 7.19932 101.702 6.5452C102.138 5.89109 102.358 5.1174 102.333 4.33203V4.29703C102.36 3.78959 102.281 3.2821 102.1 2.80713C101.919 2.33217 101.641 1.90022 101.284 1.53903C100.772 1.07188 100.169 0.715339 99.513 0.491663C98.857 0.267988 98.1618 0.181985 97.471 0.239026H91.9041V12.107H95.143V3.10703H97.269C98.349 3.10703 99.023 3.58403 99.023 4.50703V4.53903C99.023 5.39203 98.382 5.93903 97.269 5.93903H96.56V8.52603L98.922 12.107H102.667L99.9041 7.98103Z" fill="white"/>
<path d="M0 0L3.105 2.78L6.211 0H0Z" fill="#F89C1B"/>
<path d="M3.10498 5.59302V8.40702L6.20998 5.59302H3.10498Z" fill="#F89C1B"/>
<path d="M6.20998 19.593V22.373H3.10498L6.20998 19.593Z" fill="#F89C1B"/>
<path d="M12.421 14H9.31604V16.814H12.421V14Z" fill="#F89C1B"/>
<path d="M6.20998 16.78L3.10498 14H6.20998V16.78Z" fill="#F89C1B"/>
<path d="M0 22.373V25.187H3.105L0 22.373Z" fill="#F89C1B"/>
<path d="M15.562 2.78003H12.421V5.59403H15.562V2.78003Z" fill="#F89C1B"/>
<path d="M9.31604 5.62703V2.78003H12.421L9.31604 5.62703Z" fill="#F89C1B"/>
<path d="M6.21106 0L9.31606 2.78H12.4211L9.31606 0H6.21106Z" fill="#2CAAB8"/>
<path d="M3.10498 11.187H6.20998V8.40698L3.10498 11.187Z" fill="#2CAAB8"/>
<path d="M12.421 14.001H15.526L12.421 11.187V14.001Z" fill="#2CAAB8"/>
<path d="M3.105 19.593V22.373H0L3.105 19.593Z" fill="#2CAAB8"/>
<path d="M6.211 16.78L3.105 14L0 16.78H6.211Z" fill="#2CAAB8"/>
<path d="M9.31603 16.78V14L6.17603 16.78H9.31603Z" fill="#2CAAB8"/>
<path d="M3.105 25.186H0V28H3.105V25.186Z" fill="#2CAAB8"/>
<path d="M15.561 2.78003H18.666L15.561 5.59403V2.78003Z" fill="#2CAAB8"/>
<path d="M0 5.59302V8.37302L3.105 5.59302H0Z" fill="#2CAAB8"/>
<path d="M15.561 0V2.78H18.666L15.561 0Z" fill="#F8BB16"/>
<path d="M3.10498 11.187L6.20998 14.001V11.187H3.10498Z" fill="#F8BB16"/>
<path d="M3.105 11.187H0V14.001H3.105V11.187Z" fill="#F8BB16"/>
<path d="M12.421 16.78V14H15.526L12.421 16.78Z" fill="#F8BB16"/>
<path d="M0 22.373L3.105 25.187H6.211V22.373H0Z" fill="#F8BB16"/>
<path d="M0 19.594L3.105 16.78V19.594H0Z" fill="#F8BB16"/>
<path d="M9.31606 2.78003H6.21106V5.59403H9.31606V2.78003Z" fill="#F8BB16"/>
<path d="M3.10498 5.59403V2.78003H6.20998L3.10498 5.59403Z" fill="#F8BB16"/>
<path d="M0 2.78H3.105L0 0V2.78Z" fill="#2CAAB8"/>
<path d="M9.31604 11.187H12.421V14.001L9.31604 11.187Z" fill="#F8BB16"/>
<path d="M12.421 2.78L15.561 0H12.421V2.78Z" fill="#EF4839"/>
<path d="M6.21106 0V2.78H9.31606L6.21106 0Z" fill="#EF4839"/>
<path d="M0 11.187V8.40698H3.105L0 11.187Z" fill="#EF4839"/>
<path d="M6.20998 14.001L3.10498 11.187V14.001H6.20998Z" fill="#EF4839"/>
<path d="M9.31603 14.001H6.17603L9.31603 11.187V14.001Z" fill="#EF4839"/>
<path d="M6.20998 19.594H3.10498L6.20998 16.78V19.594Z" fill="#EF4839"/>
<path d="M0 16.78V19.594L3.105 16.78H0Z" fill="#EF4839"/>
<path d="M3.10498 27.967L6.20998 25.187V27.967H3.10498Z" fill="#EF4839"/>
<path d="M3.105 2.78003H0V5.59403H3.105V2.78003Z" fill="#EF4839"/>
<path d="M3.10498 5.59403L6.20998 2.78003V5.59403H3.10498Z" fill="#EF4839"/>
</g>
<defs>
<clipPath id="clip0">
<rect width="102.667" height="28" fill="white"/>
</clipPath>
</defs>
</svg>
