<svg xmlns="http://www.w3.org/2000/svg" width="102.667" height="28" viewBox="0 0 102.667 28"><defs><style>.a{fill:#fff;}.b{fill:#f89c1b;}.c{fill:#2caab8;}.d{fill:#f8bb16;}.e{fill:#ef4839;}</style></defs><g transform="translate(28)"><g transform="translate(0 16.029)"><path class="a" d="M77.8,47.6h4.521c4.184,0,6.613,2.456,6.613,5.866V53.5c0,3.41-2.463,5.968-6.681,5.968H77.8Zm4.589,8.969c1.957,0,3.239-1.091,3.239-3v-.034c0-1.91-1.282-3-3.239-3H81.073v6.036Z" transform="translate(-77.8 -47.532)"></path><path class="a" d="M159,47.6h3.273V59.468H159Z" transform="translate(-131.603 -47.532)"></path><path class="a" d="M178.1,47.6h3.239v9h5.7v2.9H178.1Z" transform="translate(-144.259 -47.532)"></path><path class="a" d="M206.554,55.035,202.1,47.6h3.711l2.429,4.331L210.67,47.6h3.644L209.826,55v4.5h-3.273Z" transform="translate(-160.161 -47.532)"></path><path class="a" d="M121.731,47.4h-3.138L113.6,59.371h3.408l1.822-4.706H118.8l1.316-3.376,1.316,3.376h0l1.788,4.706h3.509Z" transform="translate(-101.521 -47.4)"></path></g><path class="a" d="M77.8,1.1h9.38V4H81.073V6.011H86.64V8.739H81.073v4.229H77.834V1.1Z" transform="translate(-77.8 -0.861)"></path><path class="a" d="M148.1,6.607h0A6.077,6.077,0,0,1,154.274.4a5.753,5.753,0,0,1,4.993,2.49L156.8,4.8a3.146,3.146,0,0,0-2.564-1.4,2.911,2.911,0,0,0-2.8,3.138v.034a2.922,2.922,0,0,0,2.8,3.172,3.266,3.266,0,0,0,2.665-1.432l2.463,1.773a5.935,5.935,0,0,1-5.2,2.694A6.046,6.046,0,0,1,148.1,6.607Z" transform="translate(-124.381 -0.4)"></path><path class="a" d="M190.209,4H186.7V1.1h10.291V4h-3.509v9h-3.239V4Z" transform="translate(-149.957 -0.861)"></path><path class="a" d="M221.7,6.607h0A6.2,6.2,0,0,1,228.043.4a6.135,6.135,0,0,1,6.309,6.139v.034a6.192,6.192,0,0,1-6.343,6.173A6.115,6.115,0,0,1,221.7,6.607Zm9.312,0h0a3.076,3.076,0,0,0-3-3.24,3.01,3.01,0,0,0-2.969,3.172v.034a3.066,3.066,0,0,0,3,3.206A3.01,3.01,0,0,0,231.012,6.607Z" transform="translate(-173.148 -0.4)"></path><path class="a" d="M114.365.9h-3.138L106.2,12.837h3.441l1.822-4.672h-.034l1.316-3.376,1.316,3.376h0l1.788,4.672h3.509Z" transform="translate(-96.618 -0.729)"></path><path class="a" d="M275.2,8.842a3.775,3.775,0,0,0,2.429-3.649V5.158A3.645,3.645,0,0,0,276.58,2.4a5.042,5.042,0,0,0-3.813-1.3H267.2V12.968h3.239v-9h2.126c1.08,0,1.754.477,1.754,1.4V5.4c0,.853-.641,1.4-1.754,1.4h-.709V9.387l2.362,3.581h3.745Z" transform="translate(-203.296 -0.861)"></path></g><path class="b" d="M.2,0,3.305,2.78,6.411,0Z" transform="translate(-0.2)"></path><path class="b" d="M9.1,16.5v2.814L12.205,16.5Z" transform="translate(-5.995 -10.907)"></path><path class="b" d="M12.205,57.8v2.78H9.1Z" transform="translate(-5.995 -38.207)"></path><rect class="b" width="3.105" height="2.814" transform="translate(9.316 14)"></rect><path class="b" d="M12.205,44.08,9.1,41.3h3.105Z" transform="translate(-5.995 -27.3)"></path><path class="b" d="M.2,66v2.814H3.305Z" transform="translate(-0.2 -43.627)"></path><rect class="b" width="3.141" height="2.814" transform="translate(12.421 2.78)"></rect><path class="b" d="M26.9,11.047V8.2h3.105Z" transform="translate(-17.584 -5.42)"></path><g transform="translate(0)"><path class="c" d="M18,0l3.105,2.78h3.105L21.105,0Z" transform="translate(-11.789)"></path><path class="c" d="M9.1,27.58h3.105V24.8Z" transform="translate(-5.995 -16.393)"></path><path class="c" d="M35.8,35.814h3.105L35.8,33Z" transform="translate(-23.379 -21.813)"></path><path class="c" d="M3.305,57.8v2.78H.2Z" transform="translate(-0.2 -38.207)"></path><path class="c" d="M6.411,44.08,3.305,41.3.2,44.08Z" transform="translate(-0.2 -27.3)"></path><path class="c" d="M21.04,44.08V41.3L17.9,44.08Z" transform="translate(-11.724 -27.3)"></path><rect class="c" width="3.105" height="2.814" transform="translate(0 25.186)"></rect><path class="c" d="M44.8,8.2h3.105L44.8,11.014Z" transform="translate(-29.239 -5.42)"></path><path class="c" d="M9.1,57.8v2.78l3.105-2.78Z" transform="translate(-9.1 -52.207)"></path></g><path class="d" d="M44.8,0V2.78h3.105Z" transform="translate(-29.239)"></path><path class="d" d="M9.1,33l3.105,2.814V33Z" transform="translate(-5.995 -21.813)"></path><rect class="d" width="3.105" height="2.814" transform="translate(0 11.187)"></rect><path class="d" d="M35.8,44.08V41.3h3.105Z" transform="translate(-23.379 -27.3)"></path><path class="d" d="M.2,66l3.105,2.814H6.411V66Z" transform="translate(-0.2 -43.627)"></path><path class="d" d="M.2,52.314,3.305,49.5v2.814Z" transform="translate(-0.2 -32.72)"></path><rect class="d" width="3.105" height="2.814" transform="translate(6.211 2.78)"></rect><path class="d" d="M9.1,11.014V8.2h3.105Z" transform="translate(-5.995 -5.42)"></path><path class="c" d="M.2,2.78H3.305L.2,0Z" transform="translate(-0.2)"></path><path class="d" d="M26.9,33h3.105v2.814Z" transform="translate(-17.584 -21.813)"></path><g transform="translate(0)"><path class="e" d="M35.8,2.78,38.94,0H35.8Z" transform="translate(-23.379)"></path><path class="e" d="M18,0V2.78h3.105Z" transform="translate(-11.789)"></path><path class="e" d="M.2,27.58V24.8H3.305Z" transform="translate(-0.2 -16.393)"></path><path class="e" d="M12.205,35.814,9.1,33v2.814Z" transform="translate(-5.995 -21.813)"></path><path class="e" d="M21.04,35.814H17.9L21.04,33Z" transform="translate(-11.724 -21.813)"></path><path class="e" d="M12.205,52.314H9.1L12.205,49.5Z" transform="translate(-5.995 -32.72)"></path><path class="e" d="M.2,49.5v2.814L3.305,49.5Z" transform="translate(-0.2 -32.72)"></path><path class="e" d="M9.1,77.08l3.105-2.78v2.78Z" transform="translate(-5.995 -49.113)"></path><rect class="e" width="3.105" height="2.814" transform="translate(0 2.78)"></rect><path class="e" d="M9.1,11.014,12.205,8.2v2.814Z" transform="translate(-5.995 -5.42)"></path></g></svg>